<?xml version="1.0" encoding="utf-8"?>
<!-- Generator: Adobe Illustrator 17.1.0, SVG Export Plug-In . SVG Version: 6.00 Build 0)  -->
<!DOCTYPE svg PUBLIC "-//W3C//DTD SVG 1.1//EN" "http://www.w3.org/Graphics/SVG/1.1/DTD/svg11.dtd">
<svg version="1.1" id="Layer_1" xmlns="http://www.w3.org/2000/svg" xmlns:xlink="http://www.w3.org/1999/xlink" x="0px" y="0px"
	 viewBox="0 0 274 124" enable-background="new 0 0 274 124" xml:space="preserve">
<g>
	<g>
		<path fill="#88E873" d="M75.1,111.2c-27.8,0-50.5-22.6-50.5-50.5s22.6-50.5,50.5-50.5s50.5,22.6,50.5,50.5S102.9,111.2,75.1,111.2
			z M75.1,14.5c-25.5,0-46.3,20.7-46.3,46.3S49.6,107,75.1,107s46.3-20.7,46.3-46.3S100.6,14.5,75.1,14.5z"/>
		<path fill="#0080ED" d="M56.7,124c-27.9,0-50.6-22.7-50.6-50.6s22.7-50.6,50.6-50.6s50.6,22.7,50.6,50.6S84.6,124,56.7,124z
			 M56.7,27.3c-25.4,0-46.1,20.7-46.1,46.1s20.7,46.1,46.1,46.1s46.1-20.7,46.1-46.1S82.1,27.3,56.7,27.3z"/>
		<path fill="#1463EE" d="M51.7,111.2c-27.8,0-50.5-22.6-50.5-50.5s22.6-50.5,50.5-50.5s50.5,22.6,50.5,50.5S79.6,111.2,51.7,111.2z
			 M51.7,14.5c-25.5,0-46.3,20.7-46.3,46.3S26.2,107,51.7,107S98,86.2,98,60.7S77.2,14.5,51.7,14.5z"/>
		<path fill="#27A0D2" d="M63.3,103.1c-27.9,0-50.6-22.7-50.6-50.6S35.4,1.9,63.3,1.9s50.6,22.7,50.6,50.6S91.2,103.1,63.3,103.1z
			 M63.3,6.3C37.9,6.3,17.2,27,17.2,52.5s20.7,46.1,46.1,46.1s46.1-20.7,46.1-46.1S88.8,6.3,63.3,6.3z"/>
		<path fill="#26D784" d="M70.6,123.9c-27.8,0-50.5-22.6-50.5-50.5S42.8,23,70.6,23s50.5,22.6,50.5,50.5S98.4,123.9,70.6,123.9z
			 M70.6,27.2c-25.5,0-46.3,20.7-46.3,46.3s20.7,46.3,46.3,46.3s46.3-20.7,46.3-46.3S96.1,27.2,70.6,27.2z"/>
	</g>
	<g>
		<path fill-rule="evenodd" clip-rule="evenodd" fill="#1463EE" d="M133.8,83.8h6.7c0.8,0,1.4,0.5,1.6,1.4
			c1.5,6.8,7.7,10.9,14.6,10.9c8.5,0,14.7-6.8,14.7-15.2c0-9.6-6.4-15.3-15.4-15c0,0-0.7,0-0.7-0.8l0.2-5.6c0-1.1,0.9-1.1,0.9-1.1
			c7.8-0.2,14.2-3.4,14.2-12.5c0-7.8-5.7-13.3-13.3-13.3c-6.4,0-11,3.8-12.4,9.7c0,0-0.1,1.5-1.6,1.5h-7c-1.3,0-1-1.3-1-1.3
			c2.2-11.9,10.1-18.3,22.3-18.3c12.2,0,22.2,7.9,22.2,20.9c0,7.6-3.3,13.8-10,17.3c7.5,3.4,10.9,10.7,10.9,19
			c0,14.4-10.8,23.2-24.5,23.2c-11.6,0-22.1-7.5-23.3-19.5C132.7,85.1,132.5,83.8,133.8,83.8z"/>
	</g>
	<path fill-rule="evenodd" clip-rule="evenodd" fill="#1463EE" d="M185.1,91.3c-1,2.9-2.8,5.5-2.8,5.5c-0.4,0.5-0.3,1.3,0.2,1.7
		c0,0,7,5.8,17.1,5.8c15.8,0,29-10.9,29-27.4c0-14.4-10.4-27.4-25.2-27.4c-3.4,0-6.5,1.2-6.5,1.2c-0.6,0.2-1-0.1-0.9-0.7l2.6-14.9
		c0.1-0.6,0.7-1.1,1.4-1.1c0,0,17.4,0,21.2,0c0,0,0.5,0,0.8-0.6c1.5-4.1,5.6-7.2,5.6-7.2c0.5-0.4,0.4-0.7-0.2-0.7h-35.8
		c-0.6,0-1.2,0.5-1.3,1.1l-5.6,35.7c0,0-0.4,1.8,0.4,2.3c0.8,0.5,1.3-0.1,1.3-0.1c3.4-4.1,8.8-6.6,14.1-6.6
		c9.9,0,18.9,8.5,18.9,18.6c0,10.5-8.7,19.2-19.1,19.2c-7.1,0-11.5-3-13.7-5C186.2,90.3,185.5,89.9,185.1,91.3z"/>
	<path fill-rule="evenodd" clip-rule="evenodd" fill="#1463EE" d="M184.8,65.1"/>
	<path fill-rule="evenodd" clip-rule="evenodd" fill="#1463EE" d="M224.3,102.1l32.3-39.9c3.2-3.9,6.8-8.8,6.8-14
		c0-8.2-7.1-14.9-15.1-14.9c-7.5,0-13.6,5.8-14.6,13.1c0,0,0,1.1-1.1,1.1h-7.7c-0.9,0-0.8-1.1-0.8-1.1C226,33.4,234.8,25,248.4,25
		c13,0,24.2,9.4,24.2,22.9c0,5.8-2.1,11.6-5.7,16l-24.5,30.4c-0.4,0.5-0.2,0.9,0.4,0.9h28.6c0.6,0,1.1,0.5,1.1,1.2v6.2
		c0,0.6-0.5,1.2-1.1,1.2c0,0-46,0-46.5,0C224.4,103.7,223.8,102.9,224.3,102.1z"/>
	<path fill-rule="evenodd" clip-rule="evenodd" fill="#1463EE" d="M224.1,46.5"/>
</g>
</svg>
